<svg width="151" height="39" viewBox="0 0 151 39" fill="none" xmlns="http://www.w3.org/2000/svg">
<path d="M23.8994 13.9844C24.0107 14.0994 24.1399 14.1895 24.2866 14.2539C24.4332 14.3185 24.5907 14.3507 24.7591 14.3507C24.9274 14.3507 25.085 14.3185 25.2317 14.2539C25.3786 14.1895 25.5061 14.0994 25.6148 13.9844C25.7235 13.8694 25.8104 13.7359 25.8755 13.5844C25.9408 13.4327 25.9734 13.2699 25.9734 13.0959C25.9734 12.9218 25.9408 12.759 25.8755 12.6073C25.8104 12.4558 25.7235 12.3223 25.6148 12.2073C25.5061 12.0923 25.3786 12.0009 25.2317 11.9335C25.085 11.8661 24.9274 11.8324 24.7591 11.8324C24.5907 11.8324 24.4332 11.8661 24.2866 11.9335C24.1399 12.0009 24.0107 12.0923 23.8994 12.2073C23.7879 12.3223 23.6997 12.4558 23.6346 12.6073C23.5694 12.759 23.5369 12.9218 23.5369 13.0959C23.5369 13.2699 23.5694 13.4327 23.6346 13.5844C23.6997 13.7359 23.7879 13.8694 23.8994 13.9844Z" fill="#004D8D"/>
<path d="M49.7038 21.0002C49.5028 21.2163 49.2202 21.3245 48.8562 21.3245C48.563 21.3245 48.2736 21.2727 47.9885 21.1687C47.7031 21.0648 47.4383 20.9315 47.1939 20.7687C47.2916 20.3642 47.407 20.0149 47.5403 19.7201C47.6733 19.4252 47.8144 19.181 47.9639 18.9873C48.1133 18.7935 48.2654 18.6504 48.4203 18.5577C48.5751 18.465 48.7231 18.4187 48.8645 18.4187C49.0708 18.4187 49.2461 18.4637 49.39 18.5534C49.5338 18.6433 49.652 18.7613 49.7445 18.9073C49.8369 19.0534 49.9033 19.216 49.9443 19.3958C49.985 19.5756 50.0053 19.7524 50.0053 19.9263C50.0053 20.4262 49.9046 20.7841 49.7038 21.0002ZM25.8756 21.1981H24.8897C24.6941 21.1981 24.5107 21.1616 24.3395 21.0886C24.1685 21.0159 24.0203 20.9034 23.8954 20.7517C23.7703 20.6002 23.6713 20.4106 23.598 20.1833C23.5246 19.9559 23.488 19.6905 23.488 19.3873C23.488 19.1965 23.5085 19.0083 23.549 18.8229C23.5898 18.6377 23.6577 18.4734 23.7528 18.3303C23.8478 18.1871 23.9741 18.0721 24.1318 17.985C24.2892 17.8979 24.4849 17.8543 24.7184 17.8543C24.963 17.8543 25.1612 17.9063 25.3135 18.0103C25.4654 18.1142 25.5836 18.2502 25.6679 18.4187C25.752 18.5871 25.8076 18.7796 25.835 18.9957C25.862 19.2119 25.8756 19.4351 25.8756 19.6653V21.1981ZM51.9978 18.4313C51.8267 17.985 51.5955 17.6074 51.305 17.2986C51.0145 16.9898 50.6735 16.7525 50.2824 16.5868C49.8912 16.4214 49.4756 16.3384 49.0356 16.3384C48.7205 16.3384 48.3944 16.3819 48.0577 16.4688C47.7206 16.5561 47.3865 16.7259 47.0554 16.9784C46.7239 17.2312 46.4032 17.5837 46.0937 18.0354C45.784 18.4875 45.4989 19.0757 45.2381 19.8001C45.1348 20.0864 45.0343 20.3209 44.9366 20.5033C44.8387 20.6859 44.7341 20.8275 44.6228 20.9286C44.5113 21.0296 44.3931 21.1 44.2684 21.1393C44.1433 21.1785 44.0047 21.1981 43.8526 21.1981H43.5593H41.025H40.104C40.0715 20.4683 39.9656 19.7748 39.7863 19.1178C39.6071 18.4609 39.33 17.8839 38.9551 17.387C38.5802 16.89 38.0939 16.4956 37.4964 16.2036C36.8986 15.9118 36.1653 15.7657 35.2961 15.7657C35.0625 15.7657 34.8276 15.7813 34.5912 15.812C34.3548 15.8429 34.128 15.8824 33.9108 15.9298C33.6934 15.9777 33.4923 16.0281 33.3077 16.0815C33.1231 16.1349 32.9626 16.1869 32.827 16.2373V18.3009C33.028 18.2448 33.2316 18.1942 33.4382 18.1492C33.6446 18.1043 33.8387 18.068 34.0208 18.0397C34.2028 18.0116 34.3684 17.9906 34.5179 17.9766C34.6674 17.9627 34.7881 17.9554 34.8806 17.9554C35.4292 17.9554 35.8883 18.0343 36.2578 18.1914C36.6272 18.3485 36.926 18.5704 37.1542 18.8566C37.3823 19.1431 37.5521 19.4855 37.6634 19.8842C37.7747 20.2831 37.8469 20.721 37.8795 21.1981H31.7593H29.2251H28.1249V19.6063C28.1249 19.3199 28.1031 19.028 28.0598 18.7304C28.016 18.4328 27.9442 18.1408 27.8437 17.8543C27.7432 17.5681 27.6101 17.2986 27.4444 17.0458C27.2786 16.7933 27.0737 16.5714 26.8291 16.3804C26.5847 16.1897 26.2953 16.0394 25.9612 15.9298C25.6271 15.8204 25.2428 15.7657 24.8082 15.7657C24.2541 15.7657 23.7623 15.8723 23.3331 16.0858C22.9039 16.2993 22.5414 16.5798 22.2452 16.928C21.9491 17.2762 21.7237 17.6734 21.5689 18.1198C21.414 18.5661 21.3366 19.0223 21.3366 19.4883C21.3366 19.6119 21.3407 19.7524 21.3489 19.9095C21.357 20.0668 21.3719 20.2241 21.3937 20.3812C21.4153 20.5384 21.4425 20.6886 21.475 20.8318C21.5078 20.9749 21.5486 21.097 21.5973 21.1981H20.0817H17.5473H17.5471C17.3842 21.1981 17.2184 21.177 17.0501 21.135C16.8817 21.0929 16.7294 21.0227 16.5938 20.9245C16.4579 20.8264 16.3464 20.697 16.2597 20.537C16.1727 20.3769 16.1292 20.179 16.1292 19.9432V10.9227H13.8801V22.9417C13.8801 23.385 13.8311 23.7614 13.7334 24.0702C13.6355 24.3789 13.4862 24.6304 13.2852 24.824C13.084 25.0177 12.8288 25.1581 12.5191 25.2452C12.2094 25.3323 11.8399 25.3756 11.4109 25.3756C10.5797 25.3756 9.96158 25.1581 9.55695 24.7229C9.15213 24.2877 8.94981 23.6545 8.94981 22.8237V20.3728H6.70068V22.8069C6.70068 25.8782 8.25705 27.4139 11.3702 27.4139C12.1035 27.4139 12.7609 27.3351 13.3422 27.1781C13.9234 27.021 14.4165 26.757 14.8213 26.3865C15.2259 26.0157 15.5369 25.523 15.7543 24.9083C15.9715 24.2933 16.0856 23.5282 16.0966 22.6132C16.1781 22.7423 16.284 22.8477 16.4145 22.929C16.5448 23.0104 16.6794 23.0735 16.8178 23.1185C16.9563 23.1635 17.0922 23.1943 17.2253 23.2112C17.3583 23.2279 17.4657 23.2363 17.5471 23.2363H17.5473H20.0817H29.2251H31.7593H41.025H43.5593H44.3661C44.5507 23.2363 44.7259 23.2309 44.8917 23.2196C45.0574 23.2084 45.2176 23.1788 45.3725 23.1312C45.5273 23.0835 45.6794 23.0119 45.8289 22.9164C45.9783 22.8209 46.1291 22.6861 46.2811 22.5121C46.7863 22.8603 47.2724 23.1031 47.7398 23.2406C48.207 23.3781 48.6715 23.447 49.1333 23.447C49.6494 23.447 50.1032 23.3597 50.4942 23.1859C50.8855 23.0119 51.2114 22.769 51.4721 22.4574C51.7329 22.1456 51.9285 21.7751 52.0588 21.3455C52.1893 20.9159 52.2546 20.4458 52.2546 19.9348C52.2546 19.3789 52.1688 18.8778 51.9978 18.4313Z" fill="#004D8D"/>
<path d="M79.0669 18.2671L72.0228 14.2036C71.7023 14.016 71.3066 14.016 70.9861 14.2036L64.794 17.7763C64.5138 17.938 64.3406 18.2383 64.3406 18.5617C64.3406 19.0902 64.7739 19.4685 65.2503 19.4685C65.4005 19.4685 65.5535 19.4311 65.7009 19.3474L71.3154 16.104C71.4338 16.0375 71.5752 16.0375 71.6936 16.104L73.132 16.9358C73.233 16.9935 73.233 17.1379 73.132 17.1956L64.794 22.0101C64.5138 22.1718 64.3406 22.4722 64.3406 22.7957C64.3406 23.3243 64.7739 23.7025 65.2474 23.7025C65.3976 23.7025 65.5535 23.6621 65.7009 23.5784L74.9831 18.2208C75.0987 18.1545 75.2432 18.1545 75.3587 18.2208L76.7738 19.0382C76.8749 19.0961 76.8749 19.2404 76.7738 19.2982L62.755 27.3965C62.6539 27.454 62.5298 27.3818 62.5298 27.2664V16.9443L68.0923 13.7329C68.7854 13.3315 68.7854 12.3322 68.0923 11.9337L62.2727 8.57469C61.5824 8.1734 60.716 8.67296 60.716 9.47292V28.8634C60.716 29.6607 61.5824 30.1603 62.2727 29.7618L79.0669 20.0664C79.7572 19.6679 79.7572 18.6686 79.0669 18.2671ZM81.3168 19.1681C81.3168 20.1559 80.7882 21.0744 79.9333 21.5682L63.1391 31.2634C62.7176 31.5059 62.2381 31.636 61.7558 31.636C60.228 31.636 58.9832 30.3912 58.9832 28.8634V9.47292C58.9832 7.94223 60.228 6.70041 61.7558 6.70041C62.2381 6.70041 62.7176 6.82753 63.1391 7.07303L79.9333 16.7682C80.7882 17.262 81.3168 18.1806 81.3168 19.1681ZM62.5298 14.5906V11.0728C62.5298 10.9574 62.6539 10.8852 62.755 10.9429L65.799 12.7018C65.9003 12.7597 65.9003 12.9039 65.799 12.9616L62.755 14.7207C62.6539 14.7782 62.5298 14.7062 62.5298 14.5906Z" fill="#004D8D"/>
<path d="M96.6144 16.9525L93.4063 21.2294H93.0404L89.9029 16.9385V24.1H88.0454V14.2509H90.1838L93.2653 18.486L96.3469 14.2509H98.4714V24.1H96.6144V16.9525Z" fill="#004D8D"/>
<path d="M105.479 16.3047L103.65 20.4977H107.308L105.479 16.3047ZM108.054 22.2283H102.904L102.06 24.0858H100.048L104.466 14.2367H106.492L110.91 24.0858H108.884L108.054 22.2283Z" fill="#004D8D"/>
<path d="M119.156 24.0999V20.118H114.316V24.0999H112.458V14.251H114.316V18.4013H119.156V14.251H120.999V24.0999H119.156Z" fill="#004D8D"/>
<path d="M123.588 24.0858V14.2508H130.666V16.0378H125.445V18.7249H130.384V20.4419H125.445V24.0858H123.588Z" fill="#004D8D"/>
<path d="M132.945 14.2369H134.788V24.0858H132.945V14.2369Z" fill="#004D8D"/>
<path d="M139.234 14.2369V22.3694H144.3V24.0858H137.377V14.2369H139.234Z" fill="#004D8D"/>
</svg>
